<svg xmlns="http://www.w3.org/2000/svg" xmlns:xlink="http://www.w3.org/1999/xlink" width="680" height="248" viewBox="0 0 680 248"><defs><path id="c400a" d="M80 743V495h680v248z"/><path id="c400c" d="M317.72 603.76a25.04 25.04 0 0 0-3.88 5.12l-1.64-.84a2.15 2.15 0 0 0-2.32-1.64 2.1 2.1 0 0 0-1.84 2.36 2.1 2.1 0 0 0 3 1.64l1.6.84c-.88 1.96-1.52 4-1.88 6.12l2.64.48c.8-4.6 3-8.8 6.28-12.2z"/><path id="c400d" d="M337 595.68c-.6 0-1.2.04-1.8.04l-.24-2.2a2.52 2.52 0 0 0 .92-2.28 2.5 2.5 0 0 0-2.8-2.2 2.5 2.5 0 0 0-2.2 2.8c.12.88.68 1.64 1.44 1.96l.24 2.2c-2.52.4-4.92 1.16-7.24 2.28l1.16 2.4a24.37 24.37 0 0 1 15.72-1.8l.56-2.6c-1.88-.4-3.84-.6-5.76-.6z"/><path id="c400e" d="M360.2 604.6a2.11 2.11 0 1 0-.52-4.2 2.15 2.15 0 0 0-1.88 2.12l-1.48 1.28a26.83 26.83 0 0 0-4.96-4l-1.4 2.24a23.8 23.8 0 0 1 9 10.28l2.44-1.08c-.88-1.96-2-3.76-3.32-5.44l1.4-1.24c.24.08.48.08.72.04z"/><path id="c400f" d="M335.08 631.52c-1.36.08-2.72.12-4.08.12-3.08 0-6.08-.2-8.72-.64-1.36-.2-2.96-.56-4.48-1.04a21.72 21.72 0 0 0 18.92 10.96 21.57 21.57 0 0 0 20.92-15.84 36.06 36.06 0 0 1-8.64 3.96 54.89 54.89 0 0 1-13.92 2.48z"/><path id="c400g" d="M358.2 619.24c.08.68.16 1.36.16 2.04-4.84 4.24-13.32 7-23.44 7.6-9.28.56-16.44-.88-18.8-2.56a20.68 20.68 0 0 1-.48-4.44c0-11.52 9.6-20.88 21.36-20.88 10.76 0 19.84 7.84 21.2 18.24zm-22.32-1.84a6.48 6.48 0 1 0-12.96 0 6.48 6.48 0 0 0 12.96 0zm14.92-1.48a4.77 4.77 0 0 0-9.52 0 4.77 4.77 0 0 0 9.52 0z"/><path id="c400h" d="M393.2 607.56a10.11 10.11 0 0 0-4.84-.84c-1.92.24-2.96 1.2-2.96 3.52v3.04h7.84v6.04h-7.84v19.16h-6.8v-19.16h-4.72v-6h4.72v-3.12c0-5.92 3.16-9.76 9.04-9.76 2.24 0 4.08.44 5.6 1.08z"/><path id="c400i" d="M409.76 619.28a9.81 9.81 0 0 0-1.84-.16c-3.16 0-5.32 1.92-5.32 5.68v13.72h-6.8v-25.2h6.56v2.76c1.6-2.36 4-3.44 7.08-3.44a6.2 6.2 0 0 1 3.84 1.2z"/><path id="c400j" d="M436.68 625.88c0 .76-.04 1.72-.12 2.28h-17.88c.72 3.64 3.28 5.24 6.48 5.24 2.2 0 4.56-.88 6.36-2.4l3.96 4.36c-2.88 2.64-6.52 3.84-10.72 3.84-7.72 0-13.08-5.24-13.08-13.2 0-7.92 5.2-13.32 12.76-13.32 7.24-.04 12.2 5.32 12.24 13.2zm-17.96-2.36h11.16c-.64-3.24-2.56-5.04-5.48-5.04-3.24 0-5.08 1.92-5.68 5.04z"/><path id="c400k" d="M463.56 625.88c0 .76-.04 1.72-.12 2.28h-17.88c.72 3.64 3.28 5.24 6.48 5.24 2.2 0 4.56-.88 6.36-2.4l3.96 4.36c-2.88 2.64-6.52 3.84-10.72 3.84-7.72 0-13.08-5.24-13.08-13.2 0-7.92 5.2-13.32 12.76-13.32 7.24-.04 12.2 5.32 12.24 13.2zm-17.96-2.36h11.16c-.64-3.24-2.56-5.04-5.48-5.04-3.2 0-5.08 1.92-5.68 5.04z"/><path id="c400l" d="M492.88 625.88c0 7.56-5.24 13.28-12.2 13.28-3.4 0-5.76-1.32-7.4-3.28v13.04h-6.76v-35.6h6.64v2.8c1.64-2.04 4.04-3.44 7.52-3.44 6.96-.04 12.2 5.64 12.2 13.2zm-19.96 0c0 3.96 2.64 6.96 6.48 6.96 4 0 6.52-3.08 6.52-6.96s-2.48-6.96-6.52-6.96c-3.84.04-6.48 3-6.48 6.96z"/><path id="c400m" d="M499.44 600.68a4.29 4.29 0 0 0-4.32 4.36 4.25 4.25 0 0 0 4.32 4.32 4.26 4.26 0 0 0 4.36-4.32 4.32 4.32 0 0 0-4.36-4.36zm3.44 12.6h-6.8v25.2h6.8z"/><path id="c400n" d="M514.2 622.28l9.48-8.96H532l-12.24 11.84 12.28 13.32h-8.36l-9.56-10.2v10.2h-6.8v-37.44h6.8v21.24z"/><clipPath id="c400b"><use fill="#fff" xlink:href="#c400a"/></clipPath></defs><g><g transform="translate(-80 -495)"><use fill="#fff" fill-opacity="0" stroke="#e2e9ed" stroke-miterlimit="50" stroke-width="2" clip-path="url(&quot;#c400b&quot;)" xlink:href="#c400a"/></g><g transform="translate(-80 -495)"><g><g><use fill="#0c71ed" xlink:href="#c400c"/></g><g><use fill="#0c71ed" xlink:href="#c400d"/></g><g><use fill="#0c71ed" xlink:href="#c400e"/></g><g><use fill="#0c71ed" xlink:href="#c400f"/></g><g><use fill="#0c71ed" xlink:href="#c400g"/></g></g><g><use fill="#0c71ed" xlink:href="#c400h"/></g><g><use fill="#0c71ed" xlink:href="#c400i"/></g><g><use fill="#0c71ed" xlink:href="#c400j"/></g><g><use fill="#0c71ed" xlink:href="#c400k"/></g><g><use fill="#0c71ed" xlink:href="#c400l"/></g><g><use fill="#0c71ed" xlink:href="#c400m"/></g><g><use fill="#0c71ed" xlink:href="#c400n"/></g></g></g></svg>